<?xml version="1.0" encoding="iso-8859-1"?>
<!-- Generator: Adobe Illustrator 19.0.0, SVG Export Plug-In . SVG Version: 6.00 Build 0)  -->
<svg version="1.1" id="Capa_1" xmlns="http://www.w3.org/2000/svg" xmlns:xlink="http://www.w3.org/1999/xlink" x="0px" y="0px"
	 viewBox="0 0 496 496" style="enable-background:new 0 0 496 496;" xml:space="preserve">
<g>
	<g>
		<path d="M452.473,108.041c-0.41-0.027-0.822-0.041-1.233-0.041H140.8c-10.162-0.024-18.419,8.194-18.443,18.357
			c-0.001,0.436,0.013,0.872,0.043,1.307l12.472,187.12c0.662,9.663,8.674,17.176,18.36,17.216h285.536
			c9.699-0.019,17.732-7.532,18.4-17.208l12.472-187.12C470.32,117.511,462.635,108.722,452.473,108.041z M453.68,126.6
			L441.2,313.736c-0.072,1.272-1.126,2.266-2.4,2.264H153.232c-1.277,0.002-2.332-0.997-2.4-2.272l-12.48-187.136
			c-0.047-0.658,0.179-1.306,0.624-1.792c0.463-0.518,1.129-0.81,1.824-0.8h310.48c1.326-0.005,2.404,1.066,2.408,2.392
			C453.689,126.461,453.686,126.531,453.68,126.6z"/>
	</g>
</g>
<g>
	<g>
		<path d="M112,396c-17.673,0-32,14.327-32,32c0,17.673,14.327,32,32,32s32-14.327,32-32C144,410.327,129.673,396,112,396z M112,444
			c-8.837,0-16-7.163-16-16s7.163-16,16-16s16,7.163,16,16S120.837,444,112,444z"/>
	</g>
</g>
<g>
	<g>
		<path d="M392,396c-17.673,0-32,14.327-32,32c0,17.673,14.327,32,32,32c17.673,0,32-14.327,32-32C424,410.327,409.673,396,392,396z
			 M392,444c-8.837,0-16-7.163-16-16s7.163-16,16-16s16,7.163,16,16S400.837,444,392,444z"/>
	</g>
</g>
<g>
	<g>
		<path d="M477.6,340H119.832c-1.207-0.011-2.226-0.901-2.4-2.096L80,73.016V54.44C79.987,44.277,71.763,36.035,61.6,36H18.44
			C8.261,36.013,0.013,44.261,0,54.44V65.6C0.035,75.763,8.277,83.987,18.44,84h12.496c1.207,0.011,2.226,0.901,2.4,2.096
			l35.504,251.12c0.1,0.703-0.11,1.416-0.576,1.952c-0.465,0.52-1.134,0.812-1.832,0.8c-10.147,0.035-18.365,8.253-18.4,18.4V369.6
			c0.035,10.147,8.253,18.365,18.4,18.4H477.6c10.147-0.035,18.365-8.253,18.4-18.4v-11.12
			C496.009,348.301,487.779,340.035,477.6,340z M480,369.6c-0.026,1.315-1.085,2.374-2.4,2.4H66.44
			c-1.315-0.026-2.374-1.085-2.4-2.4v-11.12c0.026-1.315,1.085-2.374,2.4-2.4c10.162,0.024,18.419-8.195,18.443-18.357
			c0.002-0.89-0.06-1.778-0.187-2.659L49.184,83.856C47.868,74.78,40.106,68.036,30.936,68H18.44c-1.33-0.004-2.414-1.07-2.44-2.4
			V54.48c0.026-1.33,1.11-2.396,2.44-2.4H61.6c1.315,0.026,2.375,1.085,2.4,2.4v18.576c0.002,0.864,0.061,1.727,0.176,2.584
			L101.6,340.144c1.318,9.068,9.069,15.809,18.232,15.856H477.6c1.315,0.026,2.374,1.085,2.4,2.4V369.6z"/>
	</g>
</g>
<g>
</g>
<g>
</g>
<g>
</g>
<g>
</g>
<g>
</g>
<g>
</g>
<g>
</g>
<g>
</g>
<g>
</g>
<g>
</g>
<g>
</g>
<g>
</g>
<g>
</g>
<g>
</g>
<g>
</g>
</svg>
